<?xml version="1.0" encoding="UTF-8" standalone="no"?>
<!-- Created with Inkscape (http://www.inkscape.org/) -->

<svg
   xmlns:dc="http://purl.org/dc/elements/1.1/"
   xmlns:cc="http://creativecommons.org/ns#"
   xmlns:rdf="http://www.w3.org/1999/02/22-rdf-syntax-ns#"
   xmlns:svg="http://www.w3.org/2000/svg"
   xmlns="http://www.w3.org/2000/svg"
   xmlns:sodipodi="http://sodipodi.sourceforge.net/DTD/sodipodi-0.dtd"
   xmlns:inkscape="http://www.inkscape.org/namespaces/inkscape"
   width="210mm"
   height="297mm"
   viewBox="0 0 210 297"
   version="1.1"
   id="svg8"
   inkscape:version="0.92.0 r"
   sodipodi:docname="closed_hand.svg">
  <defs
     id="defs2" />
  <sodipodi:namedview
     id="base"
     pagecolor="#ffffff"
     bordercolor="#666666"
     borderopacity="1.0"
     inkscape:pageopacity="0.0"
     inkscape:pageshadow="2"
     inkscape:zoom="0.77301545"
     inkscape:cx="524.86439"
     inkscape:cy="719.56686"
     inkscape:document-units="mm"
     inkscape:current-layer="layer1"
     showgrid="false"
     inkscape:window-width="1440"
     inkscape:window-height="804"
     inkscape:window-x="0"
     inkscape:window-y="23"
     inkscape:window-maximized="0" />
  <metadata
     id="metadata5">
    <rdf:RDF>
      <cc:Work
         rdf:about="">
        <dc:format>image/svg+xml</dc:format>
        <dc:type
           rdf:resource="http://purl.org/dc/dcmitype/StillImage" />
        <dc:title></dc:title>
      </cc:Work>
    </rdf:RDF>
  </metadata>
  <g
     inkscape:label="Layer 1"
     inkscape:groupmode="layer"
     id="layer1">
    <circle
       style="opacity:1;fill:#b97c7c;fill-opacity:1;stroke:none;stroke-width:1.86500001;stroke-miterlimit:4;stroke-dasharray:none;stroke-dashoffset:0;stroke-opacity:1"
       id="path4562"
       cx="120.06685"
       cy="110.145"
       r="44.778408" />
    <path
       style="fill:#f3f3f3;fill-rule:evenodd;stroke:#000000;stroke-width:1.86500001;stroke-linecap:butt;stroke-linejoin:miter;stroke-miterlimit:4;stroke-dasharray:none;stroke-opacity:1;fill-opacity:1"
       d="m 141.40163,56.716679 c 0,0 6.08763,0.153712 8.4709,1.113913 1.15177,0.464043 4.41443,2.620416 5.49929,3.224566 3.8506,2.14437 7.4543,1.582456 10.16315,4.197438 5.42099,6.275182 9.2806,13.436518 9.34778,21.354785 0.0799,9.421266 -1.60899,15.866619 -4.64059,22.339949 -2.64803,2.83984 -7.92662,4.48746 -13.75505,0.58145 -2.61007,-3.23343 -2.22412,-6.10713 -2.26288,-9.921874 -0.0502,-4.943943 0.12913,-9.440056 -1.50369,-14.106852 -1.3366,-3.820163 -2.37412,-7.062944 -4.4036,-9.566392 -1.83497,-2.263517 -3.5989,-2.253206 -5.85983,-4.398448"
       id="path4550"
       inkscape:connector-curvature="0"
       sodipodi:nodetypes="csccsccsssc" />
    <path
       style="fill:#ffffff;fill-rule:evenodd;stroke:#000000;stroke-width:1.865;stroke-linecap:butt;stroke-linejoin:miter;stroke-opacity:1;stroke-miterlimit:4;stroke-dasharray:none;fill-opacity:1"
       d="m 74.849232,85.159264 c -2.520055,3.74935 -4.643834,6.973262 -6.214817,10.197726 -2.25392,4.626205 -1.617568,10.67885 -0.716924,16.06638 0.558209,2.21254 1.864357,3.66237 4.146653,3.50152 1.266692,-0.12183 3.542826,-1.62807 3.542826,-1.62807 0,0 -0.04106,-3.33259 0.307324,-7.45395 0.122151,-1.44506 0.75724,-4.69412 0.75724,-4.69412"
       id="path4560"
       inkscape:connector-curvature="0"
       sodipodi:nodetypes="cscccsc" />
    <path
       style="fill:#ffffff;fill-opacity:1;fill-rule:evenodd;stroke:#000000;stroke-width:1.86500001;stroke-linecap:butt;stroke-linejoin:miter;stroke-miterlimit:4;stroke-dasharray:none;stroke-opacity:1"
       d="m 118.5403,66.185853 c -4.67132,0 -8.54341,1.072434 -11.06856,1.812473 -2.69408,0.801316 -10.316925,3.629302 -10.316925,3.629302 0.53656,-0.861324 1.997476,-3.773164 1.997476,-3.773164 0,0 -5.269495,8.592681 -6.049296,12.013252 -0.782464,3.432247 0.902674,7.251646 0.754707,10.768843 -0.147886,3.515283 0.117647,7.341939 -1.949809,10.188821 -1.637266,2.25451 -3.722881,3.43457 -6.48726,3.78336 -2.166971,0.27341 -5.156878,-0.0518 -6.915973,-1.34641 -1.244306,-0.91577 -2.11445,-2.3665 -2.611019,-3.829495 -1.998582,-5.888243 -1.093982,-14.512906 -0.476074,-20.167897 0.617907,-5.654992 2.479006,-6.842536 5.141463,-10.781759 1.374305,-2.229349 1.961203,-4.970535 4.165945,-6.66133 5.379542,-4.125519 12.650998,-4.269277 13.868858,-3.863324 4.832767,2.108951 5.617817,0.484286 8.388477,0.185142 2.77066,-0.299144 6.51975,1.35254 9.21514,-0.787918 2.12706,-1.734505 2.77587,-2.566143 4.31541,-4.654935 3.70326,-5.024417 9.16253,-5.662438 10.56033,-5.662438 0.94851,0 3.83055,1.057896 5.57752,2.496198 2.26112,1.861594 4.2833,4.40471 4.8739,7.77014 0.95281,5.429334 1.71311,25.846598 0.863,32.902522 -3.33567,9.820324 -11.65909,11.156874 -18.97341,6.78865 -2.28814,-1.381443 -3.19605,-5.392422 -3.42579,-8.055353 -0.75783,-8.784078 -1.09994,-14.857841 -1.27405,-22.75468 -0.0512,-2.320342 0,-6.433552 0,-6.433552"
       id="path4569"
       inkscape:connector-curvature="0"
       sodipodi:nodetypes="ccccssscssscscscccccccscc" />
  </g>
</svg>
