<?xml version="1.0" encoding="UTF-8" standalone="no"?>
<!-- Created with Inkscape (http://www.inkscape.org/) -->

<svg
   xmlns:dc="http://purl.org/dc/elements/1.1/"
   xmlns:cc="http://creativecommons.org/ns#"
   xmlns:rdf="http://www.w3.org/1999/02/22-rdf-syntax-ns#"
   xmlns:svg="http://www.w3.org/2000/svg"
   xmlns="http://www.w3.org/2000/svg"
   xmlns:sodipodi="http://sodipodi.sourceforge.net/DTD/sodipodi-0.dtd"
   xmlns:inkscape="http://www.inkscape.org/namespaces/inkscape"
   width="210mm"
   height="297mm"
   viewBox="0 0 210 297"
   version="1.1"
   id="svg4634"
   inkscape:version="0.92.0 r"
   sodipodi:docname="open_hand.svg">
  <defs
     id="defs4628" />
  <sodipodi:namedview
     id="base"
     pagecolor="#ffffff"
     bordercolor="#666666"
     borderopacity="1.0"
     inkscape:pageopacity="0.0"
     inkscape:pageshadow="2"
     inkscape:zoom="1.2183786"
     inkscape:cx="476.13048"
     inkscape:cy="835.04044"
     inkscape:document-units="mm"
     inkscape:current-layer="layer1"
     showgrid="false"
     inkscape:window-width="1190"
     inkscape:window-height="729"
     inkscape:window-x="43"
     inkscape:window-y="35"
     inkscape:window-maximized="0" />
  <metadata
     id="metadata4631">
    <rdf:RDF>
      <cc:Work
         rdf:about="">
        <dc:format>image/svg+xml</dc:format>
        <dc:type
           rdf:resource="http://purl.org/dc/dcmitype/StillImage" />
        <dc:title></dc:title>
      </cc:Work>
    </rdf:RDF>
  </metadata>
  <g
     inkscape:label="Layer 1"
     inkscape:groupmode="layer"
     id="layer1">
    <path
       style="fill:#ffffff;fill-opacity:1;fill-rule:evenodd;stroke:#000000;stroke-width:1.86500001;stroke-linecap:butt;stroke-linejoin:miter;stroke-miterlimit:4;stroke-dasharray:none;stroke-opacity:1"
       d="m 133.1342,116.81693 -0.40694,-4.23525 -2.70403,-0.48153 c 0,0 -1.62561,-0.41938 -2.11618,-1.07346 0.49057,0.69496 1.36608,0.82252 2.11618,1.07346 0.86823,0.29046 1.6871,0.35118 2.70403,0.48153 3.66974,0.47037 6.40927,0.54382 10.07876,1.01615 1.91506,0.24651 4.2252,0.82379 6.36144,0.78556 4.81083,-0.29301 7.28928,-1.64142 12.57171,-0.97149 5.28243,0.66993 9.72737,2.75106 15.4116,3.04433 4.01893,0.20736 10.97565,-0.41104 13.61295,-0.60837 2.63731,-0.19733 2.82931,-0.16972 4.1673,-1.26007 2.46794,-2.01116 2.94823,-5.87632 0.89937,-8.7194 -1.24943,-1.73376 -3.90913,-2.08444 -6.02133,-2.40949 -5.75947,-0.88634 -12.12886,-0.92104 -18.28042,-1.39712 -2.69422,-0.20851 -5.4749,-0.18569 -8.04607,-1.01719 -1.53587,-0.49668 -3.07323,-1.480208 -4.48234,-2.26761 -2.49246,-1.392777 -5.70358,-1.540784 -7.2934,-3.912425 -0.71294,-1.063537 0.12697,-2.094332 -0.89697,-3.912424 -0.8205,-1.45687 -1.63975,-1.797756 -2.77018,-3.219868 -0.29427,-0.37021 -0.44702,-0.747577 -0.12264,-1.091718 1.41556,-1.501789 3.07783,-2.105641 4.49194,-3.89078 0.94564,-1.193759 1.78973,-3.085993 2.5586,-4.40058 0.9604,-1.64206 2.31209,-2.050926 3.50843,-5.213368 1.31086,-3.465164 2.85412,-6.359752 2.49126,-10.04676 -0.18441,-1.873745 -0.93647,-3.634489 -2.28926,-4.944029 -2.13581,-2.067527 -5.39797,-1.938497 -7.4401,-0.651677 -1.64645,1.037483 -2.28404,2.254046 -3.35934,3.828253 -1.08616,1.59011 -1.40398,3.83503 -2.6163,5.331189 -1.1957,1.475655 -2.95987,2.589632 -3.79461,4.001417 -1.36327,2.305712 -2.69522,3.624564 -4.98249,5.018559 -2.04724,1.247702 -6.95195,1.844392 -6.95195,1.844392 0,0 0.36525,-4.635735 0.56751,-6.951943 0.17767,-2.034599 0.30161,-4.181903 0.24046,-6.22333 -0.11175,-3.730511 -0.69593,-7.139981 -1.21195,-10.780195 -0.25535,-1.801357 -0.35617,-4.066465 -1.34182,-5.595709 -1.25777,-1.951435 -2.43438,-2.732458 -4.71316,-3.176573 -1.42014,-0.276775 -3.68792,-0.249783 -4.91039,0.524213 -1.94195,1.229449 -3.36073,2.791639 -3.99176,5.001733 -1.09445,3.833127 1.06122,8.232061 1.40193,12.203783 0.27592,3.216547 0.29776,6.179293 0.48333,9.402315 0.20124,3.495107 0.0747,9.323266 0.0747,9.323266 l -0.0767,-2.734425 c 0,0 -1.21989,1.286484 -1.98627,1.702517 -0.7365,0.399809 -1.85971,1.176228 -2.4119,0.54586 -1.94227,-2.217254 -3.58051,-2.962117 -5.77364,-4.453463 -1.55742,-1.059059 -3.70322,-2.175936 -5.29272,-3.186218 -1.883931,-1.197424 -3.56913,-2.683074 -5.3913,-3.972538 -2.473365,-1.750283 -4.537947,-4.567494 -7.519451,-5.107551 -2.221736,-0.402436 -4.06693,0.250834 -5.290309,1.644812 -1.389582,1.583359 -2.719879,3.806665 -2.144968,5.629355 1.139168,3.611605 4.249456,6.20088 6.867773,8.899743 0.793065,0.817462 2.010543,1.83194 2.921699,2.515307 2.277891,1.708419 4.660455,2.774096 6.826892,4.621805 1.1475,0.978679 3.020285,2.794237 3.020285,2.794237 0,0 2.156969,1.147014 3.628669,1.5967 -1.4717,-0.449686 -3.628669,-1.5967 -3.628669,-1.5967 0,0 -4.666101,1.908526 -6.336379,2.455191 -3.129809,1.024355 -4.042193,0.306525 -7.07212,1.5967 -0.784419,0.334014 -2.393716,1.189006 -3.15016,1.582287 -0.810382,0.421324 -2.095818,0.975914 -2.880822,1.44282 -0.692175,0.411693 -1.977626,0.912856 -2.621122,1.397118 -1.089957,0.820245 -1.703964,1.23812 -2.546543,2.310902 -1.025723,1.30597 -0.79988,2.88907 -1.498114,4.39576 -0.641263,1.38376 -2.09041,2.52938 -2.065621,4.0543 0.02347,1.44358 0.712396,2.53665 2.106502,2.91206 3.473274,0.9353 7.204008,-3.45141 9.056033,-6.17044 1.188841,-1.74538 3.628607,-1.2057 5.658232,-1.78905 1.318892,-0.37907 2.808982,-0.0421 4.155297,-0.30782 1.578184,-0.31148 8.812256,-4.522137 4.643454,-2.19067 -0.995211,0.55659 0.994767,2.42858 2.088832,3.15788 1.05955,0.70629 2.12739,1.40867 3.60172,1.31621 5.95482,-0.37345 8.92889,-4.56125 13.60223,-6.373773 5.41453,-2.099989 10.65022,-3.3521 16.74142,-4.823799 -6.10834,1.498672 -11.3272,2.752886 -16.6813,4.821388 -4.69742,1.872674 -8.16334,6.190184 -13.64927,6.376184 0.60013,1.64773 0.97104,2.01207 2.39084,2.75059 1.92514,1.00137 2.46808,1.67533 3.47914,2.33599 2.02875,1.32566 4.84834,0.83793 7.26462,0.65156 1.70401,-0.13144 2.42897,-0.42079 3.6146,-0.73889 -1.18563,0.3181 -2.38689,0.6675 -3.6146,0.73889 -2.42721,0.14114 -5.36705,0.83527 -7.26732,-0.62264 -1.38735,-1.06439 -2.8001,-1.96114 -3.47644,-2.36491 -0.0356,1.1747 -0.57743,7.90081 -0.57743,7.90081"
       id="path4701"
       inkscape:connector-curvature="0"
       sodipodi:nodetypes="ccccassczszsssssssssssssssssssscsssssssssccssssssssssscccsssssssssssssssscccssscascc" />
  </g>
</svg>
